<mxfile host="app.diagrams.net" modified="2023-02-05T16:36:03.962Z" agent="5.0 (Macintosh; Intel Mac OS X 10_15_7) AppleWebKit/537.36 (KHTML, like Gecko) Chrome/109.0.0.0 Safari/537.36" etag="BDL1LmaP76yvKqARVXSr" version="20.8.16" type="github">
  <diagram name="Page-1" id="vdKekYEHavQZZwt06mS4">
    <mxGraphModel dx="954" dy="502" grid="1" gridSize="10" guides="1" tooltips="1" connect="1" arrows="1" fold="1" page="1" pageScale="1" pageWidth="850" pageHeight="1100" math="0" shadow="0">
      <root>
        <mxCell id="0" />
        <mxCell id="1" parent="0" />
        <mxCell id="wFHDfV_3rOKTHC6TToMO-1" value="Node 1&lt;br&gt;(active)" style="sketch=0;outlineConnect=0;fontColor=#232F3E;gradientColor=none;strokeColor=#232F3E;fillColor=#ffffff;dashed=0;verticalLabelPosition=bottom;verticalAlign=top;align=center;html=1;fontSize=12;fontStyle=0;aspect=fixed;shape=mxgraph.aws4.resourceIcon;resIcon=mxgraph.aws4.traditional_server;" vertex="1" parent="1">
          <mxGeometry x="210" y="170" width="60" height="60" as="geometry" />
        </mxCell>
        <mxCell id="wFHDfV_3rOKTHC6TToMO-2" value="Node 2&lt;br&gt;(active)" style="sketch=0;outlineConnect=0;fontColor=#232F3E;gradientColor=none;strokeColor=#232F3E;fillColor=#ffffff;dashed=0;verticalLabelPosition=bottom;verticalAlign=top;align=center;html=1;fontSize=12;fontStyle=0;aspect=fixed;shape=mxgraph.aws4.resourceIcon;resIcon=mxgraph.aws4.traditional_server;" vertex="1" parent="1">
          <mxGeometry x="320" y="170" width="60" height="60" as="geometry" />
        </mxCell>
        <mxCell id="wFHDfV_3rOKTHC6TToMO-3" value="Node 1&lt;br&gt;(active)" style="sketch=0;outlineConnect=0;fontColor=#232F3E;gradientColor=none;strokeColor=#232F3E;fillColor=#ffffff;dashed=0;verticalLabelPosition=bottom;verticalAlign=top;align=center;html=1;fontSize=12;fontStyle=0;aspect=fixed;shape=mxgraph.aws4.resourceIcon;resIcon=mxgraph.aws4.traditional_server;" vertex="1" parent="1">
          <mxGeometry x="480" y="170" width="60" height="60" as="geometry" />
        </mxCell>
        <mxCell id="wFHDfV_3rOKTHC6TToMO-4" value="Node 2&lt;br&gt;(passive)" style="sketch=0;outlineConnect=0;fontColor=#232F3E;gradientColor=none;strokeColor=#232F3E;fillColor=#ffffff;dashed=0;verticalLabelPosition=bottom;verticalAlign=top;align=center;html=1;fontSize=12;fontStyle=0;aspect=fixed;shape=mxgraph.aws4.resourceIcon;resIcon=mxgraph.aws4.traditional_server;" vertex="1" parent="1">
          <mxGeometry x="590" y="170" width="60" height="60" as="geometry" />
        </mxCell>
        <mxCell id="wFHDfV_3rOKTHC6TToMO-5" value="" style="outlineConnect=0;dashed=0;verticalLabelPosition=bottom;verticalAlign=top;align=center;html=1;shape=mxgraph.aws3.mobile_client;fillColor=#D2D3D3;gradientColor=none;" vertex="1" parent="1">
          <mxGeometry x="280" y="50" width="40.5" height="50" as="geometry" />
        </mxCell>
        <mxCell id="wFHDfV_3rOKTHC6TToMO-6" value="" style="outlineConnect=0;dashed=0;verticalLabelPosition=bottom;verticalAlign=top;align=center;html=1;shape=mxgraph.aws3.mobile_client;fillColor=#D2D3D3;gradientColor=none;" vertex="1" parent="1">
          <mxGeometry x="549.5" y="50" width="40.5" height="50" as="geometry" />
        </mxCell>
        <mxCell id="wFHDfV_3rOKTHC6TToMO-7" value="Client Requests" style="text;html=1;strokeColor=none;fillColor=none;align=center;verticalAlign=middle;whiteSpace=wrap;rounded=0;" vertex="1" parent="1">
          <mxGeometry x="270" y="100" width="60" height="30" as="geometry" />
        </mxCell>
        <mxCell id="wFHDfV_3rOKTHC6TToMO-8" value="Client Requests" style="text;html=1;strokeColor=none;fillColor=none;align=center;verticalAlign=middle;whiteSpace=wrap;rounded=0;" vertex="1" parent="1">
          <mxGeometry x="540" y="100" width="60" height="30" as="geometry" />
        </mxCell>
        <mxCell id="wFHDfV_3rOKTHC6TToMO-9" value="" style="endArrow=classic;html=1;rounded=0;exitX=0;exitY=0.5;exitDx=0;exitDy=0;" edge="1" parent="1" source="wFHDfV_3rOKTHC6TToMO-7" target="wFHDfV_3rOKTHC6TToMO-1">
          <mxGeometry width="50" height="50" relative="1" as="geometry">
            <mxPoint x="400" y="280" as="sourcePoint" />
            <mxPoint x="450" y="230" as="targetPoint" />
            <Array as="points">
              <mxPoint x="240" y="115" />
            </Array>
          </mxGeometry>
        </mxCell>
        <mxCell id="wFHDfV_3rOKTHC6TToMO-10" value="" style="endArrow=classic;html=1;rounded=0;exitX=1;exitY=0.5;exitDx=0;exitDy=0;" edge="1" parent="1" source="wFHDfV_3rOKTHC6TToMO-7" target="wFHDfV_3rOKTHC6TToMO-2">
          <mxGeometry width="50" height="50" relative="1" as="geometry">
            <mxPoint x="400" y="280" as="sourcePoint" />
            <mxPoint x="450" y="230" as="targetPoint" />
            <Array as="points">
              <mxPoint x="350" y="115" />
            </Array>
          </mxGeometry>
        </mxCell>
      </root>
    </mxGraphModel>
  </diagram>
</mxfile>
